<?xml version="1.0" encoding="utf-8"?>
<svg version="1.1" id="Layer_1" x="0px" y="0px" viewBox="-426.38 15.804 1104.68 171.371" enable-background="new 0 0 612 194" width="685.29999" height="207.8" xmlns="http://www.w3.org/2000/svg">
  <path fill="#ffffff" d="M 124.8,82.2 H 41.9 C 40.8,82.2 40,81.3 40,80.3 V 58.7 c 0,-1.1 0.9,-1.9 1.9,-1.9 h 82.9 c 1.1,0 1.9,0.9 1.9,1.9 V 80 c 0,1.1 -0.7,2.2 -1.9,2.2 z" id="path4233"/>
  <path fill="#ffffff" d="M 102.6,115.5 H 42.1 C 41,115.5 40,114.6 40,113.4 V 92.2 c 0,-1.1 0.9,-2.1 2.1,-2.1 h 60.5 c 1.1,0 2.1,0.9 2.1,2.1 v 21.2 c 0,1.2 -0.9,2.1 -2.1,2.1 z" id="path4235"/>
  <linearGradient id="SVGID_1_" gradientUnits="userSpaceOnUse" x1="61.400002" y1="117.4396" x2="175.7851" y2="117.4396" gradientTransform="matrix(0.7601,0,0,0.7601,23.0196,46.352)">
    <stop offset="0.1656" style="stop-color:#D0BD2B" id="stop4237"/>
    <stop offset="1" style="stop-color:#D0BD2B;stop-opacity:0" id="stop4239"/>
  </linearGradient>
  <path fill="url(#SVGID_1_)" d="M 154.6,148.3 H 71.7 c -1.1,0 -2.1,-0.9 -2.1,-2.1 V 125 c 0,-1.1 0.9,-2.1 2.1,-2.1 h 82.7 c 1.1,0 2.1,0.9 2.1,2.1 v 21.2 c 0,1.2 -0.9,2.1 -1.9,2.1 z" id="path4242" style="fill:url(#SVGID_1_)"/>
  <g id="g4256" transform="translate(28.9,34.8)">
    <path fill="#ffffff" d="m 239.6,100.8 c -4.4,1.6 -10.1,3.4 -17.1,4.9 -7.2,1.6 -14.3,2.5 -21.3,2.5 -16.4,0 -29.3,-4.4 -38.6,-13.4 -9.3,-9 -13.9,-21.3 -13.9,-37 0,-15 4.8,-27.2 14.1,-36.3 9.3,-9.2 22.6,-13.8 39.3,-13.8 6.3,0 12.3,0.5 18.2,1.8 5.8,1.1 12.2,3.4 19.2,6.9 V 39 h -2.8 c -1.2,-0.9 -3,-2.1 -5.3,-3.9 -2.3,-1.8 -4.6,-3.2 -6.7,-4.2 -2.5,-1.4 -5.5,-2.6 -8.8,-3.5 -3.4,-1.1 -6.9,-1.6 -10.8,-1.6 -4.4,0 -8.5,0.7 -12,1.9 -3.5,1.2 -6.9,3.4 -9.7,6 -2.8,2.6 -4.9,6 -6.5,9.9 -1.6,4.1 -2.3,8.6 -2.3,13.8 0,10.8 2.8,18.9 8.5,24.5 5.6,5.6 14.1,8.5 25.2,8.5 1.1,0 1.9,0 3.2,0 1.1,0 2.1,0 3.2,-0.2 v -19 H 195.5 V 53 H 240 Z" id="path4244"/>
    <path fill="#ffffff" d="m 298.7,98.7 c -1.2,1.1 -2.8,2.1 -4.8,3.4 -1.8,1.4 -3.7,2.5 -5.3,3.2 -2.3,1.1 -4.8,1.8 -7.2,2.3 -2.5,0.5 -5.1,0.7 -8.1,0.7 -6.9,0 -12.7,-2.1 -17.5,-6.5 -4.8,-4.2 -7.1,-9.7 -7.1,-16.4 0,-5.3 1.2,-9.7 3.5,-13.1 2.3,-3.4 5.8,-6 10.1,-7.9 4.2,-1.9 9.7,-3.4 16,-4.2 6.3,-0.9 13.1,-1.4 19.9,-1.8 V 58 c 0,-4.1 -1.6,-6.9 -4.9,-8.3 -3.4,-1.6 -8.1,-2.3 -14.5,-2.3 -3.9,0 -7.9,0.7 -12.3,2.1 -4.4,1.4 -7.6,2.5 -9.3,3.2 h -2.1 V 35 c 2.5,-0.7 6.5,-1.4 12.2,-2.3 5.5,-0.9 11.1,-1.4 16.8,-1.4 13.2,0 22.9,2.1 28.7,6.2 5.8,4.1 8.8,10.4 8.8,19.2 v 49.6 h -23.1 z m 0,-11.5 v -15 c -3.2,0.2 -6.5,0.5 -10.2,1.1 -3.7,0.6 -6.5,1.1 -8.3,1.6 -2.3,0.7 -4.1,1.8 -5.3,3.2 -1.2,1.4 -1.8,3.4 -1.8,5.5 0,1.6 0.2,2.8 0.4,3.7 0.2,1.1 0.9,1.8 1.9,2.8 1.1,0.9 2.1,1.6 3.5,1.9 1.4,0.4 3.5,0.5 6.5,0.5 2.3,0 4.8,-0.5 7.2,-1.4 2.2,-1 4.3,-2.3 6.1,-3.9 z" id="path4246"/>
    <path fill="#ffffff" d="M 361,106.3 H 337.5 V 5.2 H 361 Z" id="path4248"/>
    <path fill="#ffffff" d="m 421.1,98.7 c -1.2,1.1 -2.8,2.1 -4.8,3.4 -1.8,1.4 -3.7,2.5 -5.3,3.2 -2.3,1.1 -4.8,1.8 -7.2,2.3 -2.5,0.5 -5.1,0.7 -8.1,0.7 -6.9,0 -12.7,-2.1 -17.5,-6.5 -4.8,-4.2 -7.1,-9.7 -7.1,-16.4 0,-5.3 1.2,-9.7 3.5,-13.1 2.3,-3.4 5.8,-6 10.1,-7.9 4.4,-1.9 9.7,-3.4 16,-4.2 6.3,-0.9 13.1,-1.4 19.9,-1.8 V 58 c 0,-4.1 -1.6,-6.9 -4.9,-8.3 -3.4,-1.6 -8.1,-2.3 -14.5,-2.3 -3.9,0 -7.9,0.7 -12.3,2.1 -4.4,1.4 -7.6,2.5 -9.3,3.2 h -2.1 V 35 c 2.5,-0.7 6.5,-1.4 12.2,-2.3 5.5,-0.9 11.1,-1.4 16.8,-1.4 13.2,0 22.9,2.1 28.7,6.2 6,4.1 8.8,10.4 8.8,19.2 v 49.6 h -23.1 z m 0,-11.5 v -15 c -3.2,0.2 -6.5,0.5 -10.2,1.1 -3.7,0.6 -6.5,1.1 -8.3,1.6 -2.3,0.7 -4.1,1.8 -5.3,3.2 -1.2,1.4 -1.8,3.4 -1.8,5.5 0,1.6 0.2,2.8 0.4,3.7 0.2,1.1 0.9,1.8 1.9,2.8 1.1,0.9 2.1,1.6 3.5,1.9 1.4,0.4 3.5,0.5 6.5,0.5 2.3,0 4.8,-0.5 7.2,-1.4 2.2,-1 4.3,-2.3 6.1,-3.9 z" id="path4250"/>
    <path fill="#ffffff" d="m 536.1,106.3 h -27.3 l -15.5,-21.7 -16,21.9 H 450.5 L 479.1,70 450.9,33.5 h 27.3 L 493.6,55 508.9,33.5 h 26.8 l -28.4,36 z" id="path4252"/>
    <path fill="#ffffff" d="m 575.8,80.5 16.6,-47.1 h 24 L 575.8,133 H 550.4 L 562,105.7 533.8,33.4 h 24.5 z" id="path4254"/>
  </g>
  <text style="fill: rgb(255, 255, 255); font-family: Arial, sans-serif; font-size: 110px; white-space: pre;" x="-57" y="3"><tspan x="-406.063" y="143.834" style="font-size: 110px; word-spacing: 0px;">N</tspan><tspan style="fill: rgb(231, 76, 60); font-size: 110px; word-spacing: 0px;">e</tspan><tspan style="font-size: 110px; word-spacing: 0px;">LS</tspan></text>
  <rect x="-54.512" y="38.923" width="14.022" height="134.27" style="stroke: rgb(0, 0, 0); stroke-width: 0px; fill: rgb(45, 74, 128);"/>
  <rect x="-60.331" y="32.719" width="14.022" height="135.006" style="stroke: rgb(0, 0, 0); fill: rgb(77, 131, 170); stroke-width: 0px;"/>
  <text style="white-space: pre; fill: rgb(51, 51, 51); font-family: Arial, sans-serif; font-size: 27.5px;" x="213.615" y="-90.191"> </text>
  <text style="white-space: pre; fill: rgb(51, 51, 51); font-family: Arial, sans-serif; font-size: 27.5px;" x="-807.737" y="-390.416">Enter your text here</text>
  <text style="white-space: pre; fill: rgb(51, 51, 51); font-family: Arial, sans-serif; font-size: 27.5px;" x="-271.062" y="-65.663"> </text>
</svg>