<?xml version="1.0" encoding="UTF-8" standalone="no"?>
<svg
   sodipodi:docname="login_with_Feide_or_NeLS_identity_7_short.svg"
   inkscape:version="1.1.1 (3bf5ae0d25, 2021-09-20)"
   id="svg8"
   version="1.1"
   viewBox="0 0 70.511633 11.906253"
   height="45"
   width="266.5"
   xmlns:inkscape="http://www.inkscape.org/namespaces/inkscape"
   xmlns:sodipodi="http://sodipodi.sourceforge.net/DTD/sodipodi-0.dtd"
   xmlns="http://www.w3.org/2000/svg"
   xmlns:svg="http://www.w3.org/2000/svg"
   xmlns:rdf="http://www.w3.org/1999/02/22-rdf-syntax-ns#"
   xmlns:cc="http://creativecommons.org/ns#"
   xmlns:dc="http://purl.org/dc/elements/1.1/">
  <defs
     id="defs2">
    <style
       id="style901">.cls-1{fill:#1f4698;}</style>
  </defs>
  <sodipodi:namedview
     fit-margin-bottom="0"
     fit-margin-right="0"
     fit-margin-left="0"
     fit-margin-top="0"
     inkscape:window-maximized="1"
     inkscape:window-y="-8"
     inkscape:window-x="-8"
     inkscape:window-height="1017"
     inkscape:window-width="1920"
     showgrid="false"
     inkscape:document-rotation="0"
     inkscape:current-layer="layer1"
     inkscape:document-units="px"
     inkscape:cy="39.5625"
     inkscape:cx="94.1875"
     inkscape:zoom="8"
     inkscape:pageshadow="2"
     inkscape:pageopacity="0.0"
     borderopacity="1.0"
     bordercolor="#666666"
     pagecolor="#ffffff"
     id="base"
     inkscape:pagecheckerboard="0"
     units="px"
     showborder="true"
     inkscape:showpageshadow="false" />
  <metadata
     id="metadata5">
    <rdf:RDF>
      <cc:Work
         rdf:about="">
        <dc:format>image/svg+xml</dc:format>
        <dc:type
           rdf:resource="http://purl.org/dc/dcmitype/StillImage" />
      </cc:Work>
    </rdf:RDF>
  </metadata>
  <g
     transform="translate(-6.1598606,-11.132106)"
     id="layer1"
     inkscape:groupmode="layer"
     inkscape:label="Layer 1">
    <rect
       style="fill:#175d91;fill-opacity:1;stroke-width:0.026;paint-order:stroke markers fill"
       id="rect165"
       width="70.320175"
       height="11.796073"
       x="6.2444234"
       y="11.216161"
       ry="2.8804336"
       inkscape:export-filename="\\home.ansatt.ntnu.no\kjetikl\Documents\My Pictures\usegalaxy_no\rect165.png"
       inkscape:export-xdpi="96.896729"
       inkscape:export-ydpi="96.896729" />
  </g>
  <g
     transform="matrix(0.50220899,0,0,0.53287725,-0.01707499,-4.6639269)"
     id="g1078"
     style="stroke-width:1.93305">
    <text
       xml:space="preserve"
       style="font-size:14.0284px;line-height:0px;font-family:verdana;-inkscape-font-specification:verdana;letter-spacing:0.155189px;word-spacing:0px;fill:#ffffff;fill-opacity:1;stroke-width:0.511454"
       x="78.09333"
       y="25.522173"
       id="text835"
       transform="scale(1.0058956,0.99413896)"><tspan
         sodipodi:role="line"
         id="tspan833"
         x="78.09333"
         y="25.522173"
         style="font-style:normal;font-variant:normal;font-weight:bold;font-stretch:normal;font-size:14.0284px;font-family:Arial;-inkscape-font-specification:'Arial Bold';fill:#ffffff;fill-opacity:1;stroke-width:0.511454"
         rotate="0 0 0 0 0">N<tspan
   style="font-style:normal;font-variant:normal;font-weight:bold;font-stretch:normal;font-family:Arial;-inkscape-font-specification:'Arial Bold';fill:#ff0000;fill-opacity:1;stroke-width:0.511454"
   id="tspan957">e</tspan>LS</tspan></text>
    <text
       xml:space="preserve"
       style="font-size:12.7px;line-height:0px;font-family:verdana;-inkscape-font-specification:verdana;letter-spacing:0px;word-spacing:0px;stroke-width:0.511454"
       x="59.004112"
       y="25.239557"
       id="text951"><tspan
         sodipodi:role="line"
         id="tspan949"
         x="59.004112"
         y="25.239557"
         style="font-size:12.7px;fill:#dcdceb;fill-opacity:1;stroke-width:0.511454">or</tspan></text>
    <text
       id="text951-2"
       y="25.384111"
       x="120.81888"
       style="font-size:12.7px;line-height:0px;font-family:verdana;-inkscape-font-specification:verdana;letter-spacing:0px;word-spacing:0px;stroke-width:0.511454"
       xml:space="preserve"><tspan
         style="font-size:12.7px;fill:#dcdceb;fill-opacity:1;stroke-width:0.511454"
         y="25.384111"
         x="120.81888"
         id="tspan949-5"
         sodipodi:role="line">ID</tspan></text>
    <g
       id="g943"
       transform="matrix(0.41295541,0,0,0.41295541,5.677682,11.14243)"
       style="fill:#ffffff;fill-opacity:1;stroke-width:1.23851">
      <rect
         id="rect907"
         height="10.18"
         width="4.2399998"
         y="20.34"
         x="27.99"
         class="cls-1"
         style="fill:#ffffff;fill-opacity:1;stroke-width:1.23851" />
      <polygon
         id="polygon909"
         points="13.99,23.31 13.99,34.76 4.24,34.76 4.24,20.34 0,20.34 0,35.61 0.02,35.61 0.02,39 32.23,39 32.23,34.76 18.23,34.76 18.23,23.31 "
         class="cls-1"
         style="fill:#ffffff;fill-opacity:1;stroke-width:1.23851" />
      <circle
         id="circle911"
         r="2.54"
         cy="16.530001"
         cx="16.110001"
         class="cls-1"
         style="fill:#ffffff;fill-opacity:1;stroke-width:1.23851" />
      <path
         id="path913"
         d="M 16.11,4.24 A 11.87,11.87 0 0 1 28,16.1 h 4.25 A 16.125,16.125 0 0 0 0,16.1 H 4.25 A 11.87,11.87 0 0 1 16.11,4.24 Z"
         class="cls-1"
         style="fill:#ffffff;fill-opacity:1;stroke-width:1.23851" />
      <polygon
         id="polygon915"
         points="41.98,12.07 41.98,34.75 45.61,34.75 45.61,25.01 53.32,25.01 53.32,21.59 45.61,21.59 45.61,15.48 55.7,15.48 55.7,12.07 "
         style="fill:#ffffff;fill-opacity:1;stroke-width:1.23851" />
      <path
         id="path917"
         d="m 77.79,10.08 a 2.5,2.5 0 1 0 2.5,2.5 2.5,2.5 0 0 0 -2.5,-2.5 z"
         style="fill:#ffffff;fill-opacity:1;stroke-width:1.23851" />
      <polygon
         id="polygon919"
         points="71.67,34.69 81.9,34.69 81.9,31.27 79.61,31.27 79.61,17.75 72.51,17.75 72.51,21.17 75.98,21.17 75.98,31.27 71.67,31.27 "
         style="fill:#ffffff;fill-opacity:1;stroke-width:1.23851" />
      <path
         id="path921"
         d="M 97.52,34.69 V 10.46 h -3.63 v 8.83 L 93.65,19 a 4.09,4.09 0 0 0 -3.31,-1.64 c -3.41,0 -5.89,2.74 -5.89,6.53 v 4.72 c 0,3.79 2.48,6.54 5.89,6.54 a 4.1,4.1 0 0 0 3.31,-1.65 l 0.24,-0.32 v 1.54 z m -3.65,-4.6 A 3.34,3.34 0 0 1 91,31.7 2.83,2.83 0 0 1 88.09,28.58 v -4.72 a 2.83,2.83 0 0 1 2.91,-3.12 3.34,3.34 0 0 1 2.88,1.65 v 0 7.64 z"
         style="fill:#ffffff;fill-opacity:1;stroke-width:1.23851" />
      <path
         id="path923"
         d="m 69.21,27.84 v -4.53 c 0,-3.54 -2.74,-6.11 -6.53,-6.11 -3.79,0 -6.54,2.57 -6.54,6.11 v 5.58 c 0,3.48 2.84,6.1 6.61,6.1 a 6.54,6.54 0 0 0 6.11,-3.72 L 65.5,29.83 a 2.75,2.75 0 0 1 -2.75,1.93 2.84,2.84 0 0 1 -3,-2.87 v -1.05 z m -9.44,-4.53 a 2.91,2.91 0 0 1 5.81,0 v 1.33 h -5.81 z"
         style="fill:#ffffff;fill-opacity:1;stroke-width:1.23851" />
      <path
         id="path925"
         d="m 113.71,27.84 v -4.53 c 0,-3.54 -2.75,-6.11 -6.54,-6.11 -3.79,0 -6.53,2.57 -6.53,6.11 v 5.58 c 0,3.48 2.84,6.1 6.61,6.1 a 6.55,6.55 0 0 0 6.11,-3.72 L 110,29.83 a 2.76,2.76 0 0 1 -2.75,1.93 2.83,2.83 0 0 1 -3,-2.87 v -1.05 z m -9.44,-4.53 a 2.91,2.91 0 0 1 5.81,0 v 1.33 h -5.81 z"
         style="fill:#ffffff;fill-opacity:1;stroke-width:1.23851" />
    </g>
  </g>
</svg>
